ffmpeg started on 2016-11-28 at 01:38:05
Report written to "Output/NVENCh264/results/ffmpeg/crowd_run_2160p50llhp6000k.log"
Command line:
Tools/ffmpeg/ffmpeg -benchmark -y -i Input/y4m/crowd_run_2160p50.y4m -c:v h264_nvenc -preset llhp -b:v 6000k -an Output/NVENCh264/encoded/crowd_run_2160p50llhp6000k.mkv
ffmpeg version N-82227-gdb23fde Copyright (c) 2000-2016 the FFmpeg developers
  built with gcc 5.4.0 (Ubuntu 5.4.0-6ubuntu1~16.04.2) 20160609
  configuration: --prefix=/home/jaroslav/ffmpeg_build --pkg-config-flags=--static --extra-cflags=-I/home/jaroslav/ffmpeg_build/include --extra-ldflags=-L/home/jaroslav/ffmpeg_build/lib --bindir=/home/jaroslav/bin --enable-gpl --enable-libass --enable-libfdk-aac --enable-libfreetype --enable-libmp3lame --enable-libopus --enable-libtheora --enable-libvorbis --enable-libvpx --enable-libx264 --enable-libx265 --enable-nvenc --enable-libmfx --enable-libxvid --enable-libgsm --enable-libopencore-amrnb --enable-version3 --enable-nonfree
  libavutil      55. 35.100 / 55. 35.100
  libavcodec     57. 66.101 / 57. 66.101
  libavformat    57. 57.100 / 57. 57.100
  libavdevice    57.  2.100 / 57.  2.100
  libavfilter     6. 66.100 /  6. 66.100
  libswscale      4.  3.100 /  4.  3.100
  libswresample   2.  4.100 /  2.  4.100
  libpostproc    54.  2.100 / 54.  2.100
Input #0, yuv4mpegpipe, from 'Input/y4m/crowd_run_2160p50.y4m':
  Duration: 00:00:10.00, start: 0.000000, bitrate: 4976642 kb/s
    Stream #0:0: Video: rawvideo (I420 / 0x30323449), yuv420p(progressive), 3840x2160, SAR 1:1 DAR 16:9, 50 fps, 50 tbr, 50 tbn, 50 tbc
[h264_nvenc @ 0x2b1d1c0] The variable bitrate rate-control requires the 'qmin' and/or 'qmax' option set.
Output #0, matroska, to 'Output/NVENCh264/encoded/crowd_run_2160p50llhp6000k.mkv':
  Metadata:
    encoder         : Lavf57.57.100
    Stream #0:0: Video: h264 (h264_nvenc) (Main) (H264 / 0x34363248), yuv420p, 3840x2160 [SAR 1:1 DAR 16:9], q=-1--1, 6000 kb/s, 50 fps, 1k tbn, 50 tbc
    Metadata:
      encoder         : Lavc57.66.101 h264_nvenc
    Side data:
      cpb: bitrate max/min/avg: 0/0/6000000 buffer size: 12000000 vbv_delay: -1
Stream mapping:
  Stream #0:0 -> #0:0 (rawvideo (native) -> h264 (h264_nvenc))
Press [q] to stop, [?] for help
frame=   12 fps=0.0 q=0.0 size=       0kB time=00:00:00.00 bitrate=N/A speed=   0x    frame=   22 fps= 21 q=0.0 size=       0kB time=00:00:00.00 bitrate=N/A speed=   0x    frame=   33 fps= 21 q=49.0 size=       1kB time=00:00:00.04 bitrate= 145.8kbits/s speed=0.0263x    frame=   50 fps= 24 q=49.0 size=       1kB time=00:00:00.38 bitrate=  15.7kbits/s speed=0.183x    frame=   68 fps= 26 q=49.0 size=       1kB time=00:00:00.74 bitrate=   8.1kbits/s speed=0.285x    frame=   86 fps= 28 q=47.0 size=       1kB time=00:00:01.10 bitrate=   5.4kbits/s speed=0.353x    frame=  104 fps= 29 q=47.0 size=       1kB time=00:00:01.46 bitrate=   4.1kbits/s speed=0.401x    frame=  115 fps= 19 q=47.0 size=       1kB time=00:00:01.68 bitrate=   3.6kbits/s speed=0.283x    frame=  116 fps= 12 q=48.0 size=       1kB time=00:00:01.70 bitrate=   3.5kbits/s speed=0.178x    frame=  117 fps= 11 q=48.0 size=       1kB time=00:00:01.72 bitrate=   3.5kbits/s speed=0.158x    frame=  135 fps= 12 q=48.0 size=       1kB time=00:00:02.08 bitrate=   2.9kbits/s speed=0.183x    frame=  152 fps= 13 q=48.0 size=       1kB time=00:00:02.42 bitrate=   2.5kbits/s speed=0.203x    frame=  169 fps= 14 q=48.0 size=       1kB time=00:00:02.76 bitrate=   2.2kbits/s speed=0.223x    frame=  186 fps= 14 q=48.0 size=       1kB time=00:00:03.10 bitrate=   1.9kbits/s speed=0.24x    frame=  203 fps= 15 q=48.0 size=       1kB time=00:00:03.44 bitrate=   1.7kbits/s speed=0.256x    frame=  220 fps= 16 q=48.0 size=       1kB time=00:00:03.78 bitrate=   1.6kbits/s speed=0.271x    frame=  238 fps= 16 q=47.0 size=       1kB time=00:00:04.14 bitrate=   1.4kbits/s speed=0.286x    frame=  256 fps= 17 q=47.0 size=       1kB time=00:00:04.50 bitrate=   1.3kbits/s speed= 0.3x    frame=  273 fps= 18 q=47.0 size=       1kB time=00:00:04.84 bitrate=   1.2kbits/s speed=0.312x    frame=  286 fps= 18 q=48.0 size=    3560kB time=00:00:05.10 bitrate=5717.6kbits/s speed=0.318x    frame=  304 fps= 18 q=49.0 size=    3560kB time=00:00:05.46 bitrate=5340.7kbits/s speed=0.33x    frame=  322 fps= 19 q=47.0 size=    3560kB time=00:00:05.82 bitrate=5010.4kbits/s speed=0.341x    frame=  340 fps= 19 q=46.0 size=    3560kB time=00:00:06.18 bitrate=4718.6kbits/s speed=0.352x    frame=  358 fps= 20 q=48.0 size=    3560kB time=00:00:06.54 bitrate=4458.9kbits/s speed=0.361x    frame=  376 fps= 20 q=46.0 size=    3560kB time=00:00:06.90 bitrate=4226.3kbits/s speed=0.371x    frame=  394 fps= 21 q=47.0 size=    3560kB time=00:00:07.26 bitrate=4016.7kbits/s speed=0.379x    frame=  412 fps= 21 q=48.0 size=    3560kB time=00:00:07.62 bitrate=3827.0kbits/s speed=0.388x    frame=  423 fps= 21 q=49.0 size=    3560kB time=00:00:07.84 bitrate=3719.6kbits/s speed=0.388x    frame=  441 fps= 21 q=49.0 size=    3560kB time=00:00:08.20 bitrate=3556.3kbits/s speed=0.396x    frame=  459 fps= 22 q=49.0 size=    3560kB time=00:00:08.56 bitrate=3406.8kbits/s speed=0.404x    frame=  477 fps= 22 q=49.0 size=    3560kB time=00:00:08.92 bitrate=3269.3kbits/s speed=0.411x    frame=  491 fps= 22 q=49.0 size=    3560kB time=00:00:09.20 bitrate=3169.8kbits/s speed=0.412x    frame=  500 fps= 22 q=49.0 Lsize=    7274kB time=00:00:09.98 bitrate=5969.8kbits/s speed=0.441x    
video:7269kB audio:0kB subtitle:0kB other streams:0kB global headers:0kB muxing overhead: 0.059043%
bench: utime=1.116s
bench: maxrss=1408776kB
